<svg width="21" height="21" viewBox="0 0 21 21" fill="none" xmlns="http://www.w3.org/2000/svg">
<path fill-rule="evenodd" clip-rule="evenodd" d="M10.5 1.96875C7.39856 1.96875 5.25 4.18688 5.25 6.89062C5.25 8.18213 5.8065 9.02344 6.5415 9.91462L6.82237 10.2467C7.11506 10.5932 7.43925 10.9764 7.70569 11.3597C8.07844 11.8991 8.4105 12.5357 8.52075 13.3153C8.54703 13.5686 8.47414 13.8222 8.31741 14.0228C8.16068 14.2235 7.93228 14.3556 7.6802 14.3915C7.42811 14.4273 7.17194 14.3641 6.96549 14.2151C6.75903 14.066 6.61836 13.8428 6.573 13.5922C6.5205 13.2221 6.35906 12.8743 6.08738 12.4806C5.86528 12.1714 5.62786 11.8735 5.376 11.5881C5.26575 11.4568 5.14894 11.319 5.02425 11.1681C4.20131 10.1719 3.28125 8.88038 3.28125 6.89062C3.28125 3.03187 6.38269 0 10.5 0C14.6173 0 17.7188 3.03187 17.7188 6.89062C17.7188 8.88038 16.7987 10.1719 15.9757 11.1681C15.8511 11.319 15.7343 11.4568 15.624 11.5868C15.3523 11.9083 15.1213 12.1813 14.9139 12.4806C14.6409 12.8743 14.4808 13.2221 14.4283 13.5922C14.41 13.7202 14.3667 13.8434 14.3009 13.9546C14.235 14.0658 14.1479 14.163 14.0445 14.2406C13.9411 14.3182 13.8234 14.3746 13.6982 14.4067C13.573 14.4388 13.4426 14.4459 13.3147 14.4277C13.1867 14.4094 13.0636 14.3661 12.9523 14.3002C12.8411 14.2344 12.7439 14.1473 12.6663 14.0438C12.5887 13.9404 12.5323 13.8228 12.5002 13.6975C12.4681 13.5723 12.461 13.442 12.4793 13.314C12.5895 12.5357 12.9216 11.8991 13.2943 11.3597C13.5607 10.9764 13.8849 10.5932 14.1776 10.2467C14.2761 10.1312 14.3706 10.0196 14.4572 9.91462C15.1935 9.02344 15.75 8.18213 15.75 6.89062C15.75 4.18688 13.6014 1.96875 10.5 1.96875ZM7.875 20.0156C7.875 19.7546 7.97871 19.5042 8.16332 19.3196C8.34792 19.135 8.5983 19.0312 8.85938 19.0312H12.1406C12.4017 19.0312 12.6521 19.135 12.8367 19.3196C13.0213 19.5042 13.125 19.7546 13.125 20.0156C13.125 20.2767 13.0213 20.5271 12.8367 20.7117C12.6521 20.8963 12.4017 21 12.1406 21H8.85938C8.5983 21 8.34792 20.8963 8.16332 20.7117C7.97871 20.5271 7.875 20.2767 7.875 20.0156ZM7.54688 15.75C7.2858 15.75 7.03542 15.8537 6.85082 16.0383C6.66621 16.2229 6.5625 16.4733 6.5625 16.7344C6.5625 16.9954 6.66621 17.2458 6.85082 17.4304C7.03542 17.615 7.2858 17.7188 7.54688 17.7188H13.4531C13.7142 17.7188 13.9646 17.615 14.1492 17.4304C14.3338 17.2458 14.4375 16.9954 14.4375 16.7344C14.4375 16.4733 14.3338 16.2229 14.1492 16.0383C13.9646 15.8537 13.7142 15.75 13.4531 15.75H7.54688Z" fill="black"/>
</svg>
