<svg width="33" height="24" viewBox="0 0 33 24" fill="none" xmlns="http://www.w3.org/2000/svg">
<path d="M3.62059 3.17V4.97H8.00059V7.64H3.62059V11H0.080586V0.499999H8.61559V3.17H3.62059ZM16.508 9.17H12.518L11.813 11H8.21305L12.803 0.499999H16.283L20.873 11H17.213L16.508 9.17ZM15.533 6.62L14.513 3.98L13.493 6.62H15.533ZM32.0574 0.499999L27.6174 11H24.1374L19.6974 0.499999H23.5074L26.0124 6.635L28.5774 0.499999H32.0574ZM6.73926 16V23H5.40926L1.91926 18.75V23H0.319258V16H1.65926L5.13926 20.25V16H6.73926ZM11.7854 23.12C11.0588 23.12 10.4021 22.9633 9.81543 22.65C9.23543 22.3367 8.77876 21.9067 8.44543 21.36C8.11876 20.8067 7.95543 20.1867 7.95543 19.5C7.95543 18.8133 8.11876 18.1967 8.44543 17.65C8.77876 17.0967 9.23543 16.6633 9.81543 16.35C10.4021 16.0367 11.0588 15.88 11.7854 15.88C12.5121 15.88 13.1654 16.0367 13.7454 16.35C14.3254 16.6633 14.7821 17.0967 15.1154 17.65C15.4488 18.1967 15.6154 18.8133 15.6154 19.5C15.6154 20.1867 15.4488 20.8067 15.1154 21.36C14.7821 21.9067 14.3254 22.3367 13.7454 22.65C13.1654 22.9633 12.5121 23.12 11.7854 23.12ZM11.7854 21.74C12.1988 21.74 12.5721 21.6467 12.9054 21.46C13.2388 21.2667 13.4988 21 13.6854 20.66C13.8788 20.32 13.9754 19.9333 13.9754 19.5C13.9754 19.0667 13.8788 18.68 13.6854 18.34C13.4988 18 13.2388 17.7367 12.9054 17.55C12.5721 17.3567 12.1988 17.26 11.7854 17.26C11.3721 17.26 10.9988 17.3567 10.6654 17.55C10.3321 17.7367 10.0688 18 9.87543 18.34C9.68876 18.68 9.59543 19.0667 9.59543 19.5C9.59543 19.9333 9.68876 20.32 9.87543 20.66C10.0688 21 10.3321 21.2667 10.6654 21.46C10.9988 21.6467 11.3721 21.74 11.7854 21.74ZM18.1853 17.32H15.9453V16H22.0453V17.32H19.8053V23H18.1853V17.32ZM28.3369 21.7V23H22.9169V16H28.2069V17.3H24.5269V18.82H27.7769V20.08H24.5269V21.7H28.3369ZM30.2036 23.08C29.9302 23.08 29.7002 22.9867 29.5136 22.8C29.3269 22.6133 29.2336 22.38 29.2336 22.1C29.2336 21.8133 29.3269 21.5833 29.5136 21.41C29.7002 21.23 29.9302 21.14 30.2036 21.14C30.4769 21.14 30.7069 21.23 30.8936 21.41C31.0802 21.5833 31.1736 21.8133 31.1736 22.1C31.1736 22.38 31.0802 22.6133 30.8936 22.8C30.7069 22.9867 30.4769 23.08 30.2036 23.08Z" fill="black"/>
</svg>
