<svg width="22" height="22" viewBox="0 0 22 22" fill="none" xmlns="http://www.w3.org/2000/svg">
<path d="M20.625 19.6556L15.4344 14.4375C16.6753 12.9403 17.2917 11.0226 17.1557 9.08272C17.0197 7.14287 16.1416 5.32996 14.7039 4.02056C13.2662 2.71117 11.3793 2.00591 9.43526 2.05129C7.49118 2.09666 5.63928 2.88918 4.26423 4.26423C2.88918 5.63928 2.09666 7.49118 2.05129 9.43526C2.00591 11.3793 2.71117 13.2662 4.02056 14.7039C5.32996 16.1416 7.14287 17.0197 9.08272 17.1557C11.0226 17.2917 12.9403 16.6753 14.4375 15.4344L19.6556 20.625L20.625 19.6556ZM3.4375 9.625C3.4375 8.40123 3.8004 7.20494 4.48029 6.18741C5.16018 5.16988 6.12653 4.37682 7.25715 3.9085C8.38777 3.44018 9.63187 3.31765 10.8321 3.5564C12.0324 3.79514 13.1349 4.38444 14.0002 5.24978C14.8656 6.11512 15.4549 7.21763 15.6936 8.41788C15.9324 9.61814 15.8098 10.8622 15.3415 11.9929C14.8732 13.1235 14.0801 14.0898 13.0626 14.7697C12.0451 15.4496 10.8488 15.8125 9.625 15.8125C7.98398 15.8125 6.41016 15.1606 5.24978 14.0002C4.0894 12.8398 3.4375 11.266 3.4375 9.625V9.625Z" fill="black"/>
</svg>
