<svg width="18" height="13" viewBox="0 0 18 13" fill="none" xmlns="http://www.w3.org/2000/svg">
<path fill-rule="evenodd" clip-rule="evenodd" d="M17.6705 0.325926C17.8815 0.534886 18 0.818142 18 1.11347C18 1.4088 17.8815 1.69206 17.6705 1.90102L6.77788 12.6741C6.5666 12.8828 6.2802 13 5.98159 13C5.68298 13 5.39659 12.8828 5.18531 12.6741L0.302426 7.84477C0.103385 7.63351 -0.00497508 7.35409 0.000175554 7.06537C0.00532619 6.77665 0.123585 6.50118 0.330038 6.29699C0.536491 6.0928 0.815018 5.97584 1.10694 5.97075C1.39886 5.96565 1.68139 6.07282 1.895 6.26968L5.98159 10.3114L16.0779 0.325926C16.2892 0.117225 16.5756 0 16.8742 0C17.1728 0 17.4592 0.117225 17.6705 0.325926V0.325926Z" fill="black"/>
</svg>
